<svg id="Layer_1" data-name="Layer 1" xmlns="http://www.w3.org/2000/svg" viewBox="0 0 1262.8 425.37"><defs><style>.cls-1,.cls-3{fill:#383838;}.cls-2{fill:#f44336;}.cls-3{font-size:125px;font-family:Futura-Medium, Futura;}.cls-4{letter-spacing:-0.06em;}.cls-5{letter-spacing:-0.01em;}</style></defs><title>v4c-logo</title><path class="cls-1" d="M209.23,184.61c8-23.71,15.63-46.52,23.31-69.32,3.08-9.14,6.11-18.31,9.34-27.41,2.86-8.09,9-11.34,16.42-9,6.92,2.21,10.52,8.93,8,16.73-3.88,11.89-8.38,23.57-12.69,35.31Q241.35,164.34,229,197.7c-.95,2.56-2,5.1-3.21,7.56-3.56,7.3-9.22,11.22-17.58,11.16s-13.88-4-17.11-11.28c-2.76-6.19-5.07-12.59-7.41-19Q168.19,144.09,152.81,102a47.06,47.06,0,0,1-2.4-8.59A12.62,12.62,0,0,1,158.87,79c7-2.27,13.34-.07,16,6.67,4.33,10.82,8,21.91,11.8,33,7.08,20.75,14,41.54,21,62.31C208.05,181.87,208.49,182.8,209.23,184.61Z" transform="translate(-1 -1)"/><path class="cls-2" d="M389.16,331.78a44.51,44.51,0,1,1-89-.13,44.12,44.12,0,0,1,44.28-44.4A44.85,44.85,0,0,1,389.16,331.78Z" transform="translate(-1 -1)"/><path class="cls-1" d="M163.28,154.64c4.49,12.2,8.58,23.63,12.88,35,2.79,7.34,5,15.08,9.1,21.68a25.91,25.91,0,0,1,4.2,16c-.27,4.38-.06,8.79-.06,13.57,3.53.2,6.82.2,10.07.59,8.65,1,12.3,6.05,10.43,13.91-1,4.29-4,6.5-8,7.19s-8,.78-12.52,1.17c0,2.74,0,5.56,0,8.38-.09,4.64.11,9.32-.49,13.9-.85,6.56-5.35,10.25-11.66,10.35s-11-3.48-12-9.95c-.7-4.19-.5-8.55-.6-12.83-.09-3.2,0-6.41,0-10-1.45-.07-2.7-.2-4-.2-14.43,0-28.86,0-43.29,0a41.3,41.3,0,0,1-7.12-.48C98,260.65,93,249.26,100.08,239.12c6.81-9.78,14.14-19.2,21.27-28.75q19.26-25.8,38.56-51.57C160.82,157.58,161.83,156.43,163.28,154.64Zm1.07,86.26V185.11l-41.2,55.79Z" transform="translate(-1 -1)"/><path class="cls-2" d="M265.11,341.65a42.36,42.36,0,1,1-42.25,42.47A42.67,42.67,0,0,1,265.11,341.65Z" transform="translate(-1 -1)"/><path class="cls-1" d="M207.82,225c6.33-.74,12.19-1.62,17.1-5.53a32,32,0,0,0,10-14.13c4.41-11.71,8.64-23.48,13.09-35.18.53-1.38,1.71-3.18,2.95-3.54,20-5.67,45.51-2.13,61.51,16.48,4.81,5.59,8.38,11.91,8.35,19.65,0,5.1-3.19,9.66-7.6,11a11,11,0,0,1-12.82-4.58c-1.74-2.56-3.23-5.28-4.79-8-6.45-11-15.78-16.93-28.84-16.2-13.42.75-22.83,7.61-27.81,19.72-6.81,16.52-6.86,33.59-.89,50.33,4.74,13.32,15.77,20.29,29.86,20.22s24.2-7.18,29.41-20.37c.83-2.1,1.63-4.23,2.64-6.24,2.87-5.69,7.13-7.67,12.87-6.13,5.49,1.46,8.82,6.1,8.39,12.14-.72,10.1-5.29,18.48-12.16,25.65-11.73,12.24-26.58,16.15-43,15.59-9.35-.32-18.49-1.7-27-6-10.55-5.31-17.95-13.62-23.2-24a5,5,0,0,1,.26-3.76c3.17-6.83,3.25-13.6-.17-20.3a15.19,15.19,0,0,0-3.41-4.07c-1.46-1.34-4.14-2.14-4.55-3.64C207.28,231.44,207.82,228.34,207.82,225Z" transform="translate(-1 -1)"/><path class="cls-2" d="M173.47,343.8a40.93,40.93,0,0,1,.45,81.85c-22.37.21-41.07-18.25-41.24-40.7S151,343.9,173.47,343.8Z" transform="translate(-1 -1)"/><path class="cls-2" d="M97.33,385.57A38.69,38.69,0,0,1,59,347c.11-21.06,17.68-38.46,38.65-38.28a38.42,38.42,0,0,1-.29,76.84Z" transform="translate(-1 -1)"/><path class="cls-2" d="M48.86,239.31a37.71,37.71,0,0,1-.27,75.41c-20.67-.1-37.8-17.43-37.57-38S28.38,239.22,48.86,239.31Z" transform="translate(-1 -1)"/><path class="cls-2" d="M36.87,229.56A36.21,36.21,0,0,1,1,193.5c.1-19.65,16.56-35.95,36.15-35.77a35.92,35.92,0,0,1-.28,71.83Z" transform="translate(-1 -1)"/><path class="cls-2" d="M62.06,84A34.84,34.84,0,0,1,96.45,118.5c0,18.9-15.91,34.68-34.76,34.48a34.79,34.79,0,0,1-34.21-34.66C27.61,99.55,43.33,83.94,62.06,84Z" transform="translate(-1 -1)"/><path class="cls-2" d="M112.2,95A32.28,32.28,0,0,1,80.45,62.55c.28-17.27,14.89-31.64,32-31.49,17.66.16,32.19,14.84,31.94,32.28S129.54,95.18,112.2,95Z" transform="translate(-1 -1)"/><path class="cls-2" d="M206,34.06c0,16.48-13.95,30.33-30.39,30.18a30.53,30.53,0,0,1-30-30.2c0-16.48,14-30.34,30.38-30.18A30.53,30.53,0,0,1,206,34.06Z" transform="translate(-1 -1)"/><path class="cls-2" d="M270.35,29.54a28.4,28.4,0,1,1-56.79-.29C213.58,14,226.65.93,241.92,1A28.67,28.67,0,0,1,270.35,29.54Z" transform="translate(-1 -1)"/><path class="cls-2" d="M304,22.48c14.92.15,27.36,12.79,27.14,27.58s-12.92,27.35-27.67,27.06-27.05-12.71-27-27.41C276.6,34.83,289.22,22.34,304,22.48Z" transform="translate(-1 -1)"/><path class="cls-2" d="M376.27,81.65a23.39,23.39,0,1,1-23.2-23.4C365.71,58.4,376.35,69.13,376.27,81.65Z" transform="translate(-1 -1)"/><path class="cls-2" d="M404.17,119a19.09,19.09,0,1,1-19.07-19.2A19.41,19.41,0,0,1,404.17,119Z" transform="translate(-1 -1)"/><text class="cls-3" transform="translate(375.27 263.02) scale(0.8 1)"><tspan class="cls-4">V</tspan><tspan x="77.39" y="0">ehicle </tspan><tspan class="cls-5" x="444.64" y="0">F</tspan><tspan x="507.08" y="0">or Change</tspan></text></svg>