<?xml version="1.0" encoding="utf-8"?>
<!-- Generator: Adobe Illustrator 25.4.1, SVG Export Plug-In . SVG Version: 6.00 Build 0)  -->
<svg version="1.1" id="Layer_1" xmlns="http://www.w3.org/2000/svg" xmlns:xlink="http://www.w3.org/1999/xlink" x="0px" y="0px"
	 viewBox="0 0 428 425.4" style="enable-background:new 0 0 428 425.4;" xml:space="preserve">
<style type="text/css">
	.st0{fill:#383838;}
	.st1{fill:#F44336;}
</style>
<path class="st0" d="M208.2,183.6c8-23.7,15.6-46.5,23.3-69.3c3.1-9.1,6.1-18.3,9.3-27.4c2.9-8.1,9-11.3,16.4-9
	c6.9,2.2,10.5,8.9,8,16.7c-3.9,11.9-8.4,23.6-12.7,35.3c-8.2,22.3-16.4,44.5-24.6,66.8c-0.9,2.6-2,5.1-3.2,7.6
	c-3.6,7.3-9.2,11.2-17.6,11.2s-13.9-4-17.1-11.3c-2.8-6.2-5.1-12.6-7.4-19c-10.3-28-20.6-56.1-30.9-84.1c-1.1-2.8-1.9-5.7-2.4-8.6
	c-1.2-6.2,2.4-12.4,8.5-14.4c7-2.3,13.3-0.1,16,6.7c4.3,10.8,8,21.9,11.8,33c7.1,20.8,14,41.5,21,62.3
	C207.1,180.9,207.5,181.8,208.2,183.6z"/>
<path class="st1" d="M388.2,330.8c0.5,24.6-19,44.9-43.6,45.4s-44.9-19-45.4-43.6c0-0.6,0-1.3,0-1.9c-0.2-24.4,19.5-44.2,43.8-44.4
	c0.1,0,0.3,0,0.4,0C368,286.3,388,306.2,388.2,330.8z"/>
<path class="st0" d="M162.3,153.6c4.5,12.2,8.6,23.6,12.9,35c2.8,7.3,5,15.1,9.1,21.7c3.1,4.7,4.6,10.4,4.2,16
	c-0.3,4.4-0.1,8.8-0.1,13.6c3.5,0.2,6.8,0.2,10.1,0.6c8.6,1,12.3,6.1,10.4,13.9c-1,4.3-4,6.5-8,7.2s-8,0.8-12.5,1.2
	c0,2.7,0,5.6,0,8.4c-0.1,4.6,0.1,9.3-0.5,13.9c-0.9,6.6-5.4,10.2-11.7,10.4s-11-3.5-12-10c-0.7-4.2-0.5-8.5-0.6-12.8
	c-0.1-3.2,0-6.4,0-10c-1.4-0.1-2.7-0.2-4-0.2c-14.4,0-28.9,0-43.3,0c-2.4,0-4.8-0.1-7.1-0.5C97,259.6,92,248.3,99.1,238.1
	c6.8-9.8,14.1-19.2,21.3-28.8c12.8-17.2,25.7-34.4,38.6-51.6C159.8,156.6,160.8,155.4,162.3,153.6z M163.4,239.9v-55.8l-41.2,55.8
	H163.4z"/>
<path class="st1" d="M264.1,340.6c23.4-0.1,42.4,18.9,42.5,42.2s-18.9,42.4-42.2,42.5c-23.4,0.1-42.4-18.9-42.5-42.2
	C222,359.8,240.8,340.9,264.1,340.6z"/>
<path class="st0" d="M206.8,224c6.3-0.7,12.2-1.6,17.1-5.5c4.6-3.7,8-8.6,10-14.1c4.4-11.7,8.6-23.5,13.1-35.2
	c0.5-1.4,1.7-3.2,2.9-3.5c20-5.7,45.5-2.1,61.5,16.5c4.8,5.6,8.4,11.9,8.4,19.6c0,5.1-3.2,9.7-7.6,11c-4.8,1.6-10.1-0.3-12.8-4.6
	c-1.7-2.6-3.2-5.3-4.8-8c-6.5-11-15.8-16.9-28.8-16.2c-13.4,0.8-22.8,7.6-27.8,19.7c-6.8,16.5-6.9,33.6-0.9,50.3
	c4.7,13.3,15.8,20.3,29.9,20.2s24.2-7.2,29.4-20.4c0.8-2.1,1.6-4.2,2.6-6.2c2.9-5.7,7.1-7.7,12.9-6.1c5.5,1.5,8.8,6.1,8.4,12.1
	c-0.7,10.1-5.3,18.5-12.2,25.6c-11.7,12.2-26.6,16.1-43,15.6c-9.4-0.3-18.5-1.7-27-6c-10.6-5.3-17.9-13.6-23.2-24
	c-0.4-1.2-0.3-2.6,0.3-3.8c3.2-6.8,3.2-13.6-0.2-20.3c-0.9-1.5-2-2.9-3.4-4.1c-1.5-1.3-4.1-2.1-4.6-3.6
	C206.3,230.4,206.8,227.3,206.8,224z"/>
<path class="st1" d="M172.5,342.8c22.6,0.2,40.8,18.7,40.6,41.3c-0.2,22.1-18,40.1-40.1,40.5c-22.4,0.2-41.1-18.2-41.2-40.7
	S150,342.9,172.5,342.8z"/>
<path class="st1" d="M96.3,384.6C75.1,384.4,58.1,367.2,58,346c0.1-21.1,17.7-38.5,38.7-38.3c21.2,0.1,38.4,17.3,38.3,38.6
	S117.6,384.6,96.3,384.6L96.3,384.6z"/>
<path class="st1" d="M47.9,238.3c20.8,0.4,37.4,17.6,37,38.4c-0.4,20.4-16.9,36.7-37.2,37c-20.7-0.1-37.8-17.4-37.6-38
	S27.4,238.2,47.9,238.3z"/>
<path class="st1" d="M35.9,228.6C16.1,228.4,0.1,212.3,0,192.5c0.1-19.6,16.6-35.9,36.2-35.8c19.8,0.4,35.6,16.8,35.2,36.6
	C71,212.7,55.3,228.3,35.9,228.6z"/>
<path class="st1" d="M61.1,83c18.9,0.2,34.2,15.6,34.4,34.5c0,18.9-15.9,34.7-34.8,34.5c-18.9-0.3-34.1-15.7-34.2-34.7
	C26.6,98.6,42.3,82.9,61.1,83z"/>
<path class="st1" d="M111.2,94c-17.7-0.3-31.8-14.8-31.8-32.5c0.3-17.3,14.9-31.6,32-31.5c17.7,0.2,32.2,14.8,31.9,32.3
	S128.5,94.2,111.2,94z"/>
<path class="st1" d="M205,33.1c0,16.5-13.9,30.3-30.4,30.2c-16.5-0.3-29.8-13.7-30-30.2c0-16.5,14-30.3,30.4-30.2
	C191.5,3.1,204.8,16.5,205,33.1z"/>
<path class="st1" d="M269.4,28.5c0.2,15.7-12.3,28.6-28,28.8c-15.7,0.2-28.6-12.3-28.8-28c0-0.3,0-0.7,0-1
	c0-15.2,13.1-28.3,28.4-28.2C256.6,0.1,269.3,12.8,269.4,28.5z"/>
<path class="st1" d="M303,21.5c14.9,0.1,27.4,12.8,27.1,27.6s-12.9,27.3-27.7,27.1s-27-12.7-27-27.4C275.6,33.8,288.2,21.3,303,21.5
	z"/>
<path class="st1" d="M375.3,80.7c0,12.9-10.5,23.4-23.4,23.4c-12.9,0-23.4-10.5-23.4-23.4s10.5-23.4,23.4-23.4c0.1,0,0.1,0,0.2,0
	C364.7,57.4,375.4,68.1,375.3,80.7z"/>
<path class="st1" d="M403.2,118c-0.1,10.5-8.7,19-19.2,19c-10.5-0.1-19-8.7-19-19.2c0.1-10.5,8.6-19,19.1-19
	C394.6,99,403.1,107.5,403.2,118z"/>
</svg>
