<?xml version="1.0" encoding="utf-8"?>
<!-- Generator: Adobe Illustrator 16.0.0, SVG Export Plug-In . SVG Version: 6.00 Build 0)  -->
<!DOCTYPE svg PUBLIC "-//W3C//DTD SVG 1.1//EN" "http://www.w3.org/Graphics/SVG/1.1/DTD/svg11.dtd">
<svg version="1.1" id="Logo" xmlns="http://www.w3.org/2000/svg" xmlns:xlink="http://www.w3.org/1999/xlink" x="0px" y="0px"
	 width="287.247px" height="288px" viewBox="0 0 287.247 288" enable-background="new 0 0 287.247 288" xml:space="preserve">
<g>
	<g>
		<path fill="#1457A5" d="M177.592,193.163h42.324V53.461h-38.732v87.042l-11.242-11.006V60.108C169.743,19.333,174.606,0,174.606,0
			c-13.111,0-19.914,12.422-21.432,16.094c-7.361,0.812-13.398,5.055-17.436,13.299c-2.287,4.666-3.428,9.188-3.834,11.398
			c-15.516,3.58-16.859,31.215-15.842,36.178L91.965,53.461H49.75v139.701h38.734v-84.429c0,0,18.729,17.742,18.727,17.74
			c1.703,5.092,3.357,7.129,3.357,7.129l-7.354-6.305c-1.328,13.707,2.525,20.734,6.105,25.93l-8.939-7.58
			c-0.693,13.607,5.877,21.957,9.902,25.545l-11.818-5.799c-0.811,8.144,7.359,20.074,12.104,22.375l-9.971-1.486
			c2.168,11.23,9.971,15.268,9.971,15.268s-17.029-0.357-24.865-0.357c-21.797,0-36.104,2.064-36.104,2.064
			s9.645,9.59,21.971,10.033l-10.977,6.768c7.969,2.602,15.545,1.697,15.545,1.697l-6.34,7.584c0,0,19.955-7.672,28.377-7.09
			c6.707,0.463,38.004,12.666,59.018,12.666c14.1,0,24.314-5.395,32.523-9.732c5.008-2.645,9.326-4.785,13.586-5.439
			c7.615-1.17,11.045,1.604,11.045,1.604c0.777-3.205,3.133-11.295-9.217-13.273c-0.488-2.201-2.627-5.074-5.822-5.559
			c-6.635-1.006-34.561-3.158-35.379-3.207c-2.395-0.145-10.451-1.699-3.043-12.311c0.561-0.801,4.307-5.52,4.307-5.52
			L177.592,193.163z M176.6,203.602c9.166,0.705,15.68,1.318,22.221,2.139c2.473,0.312,3.455,3.17,3.781,4.512
			c-3.131-0.777-8.084-0.984-8.084-0.984l-0.271,2.969c0,0,4.236-1.211,8.871-1.264c0,0,9.514-0.043,9.061,6.381
			c-2.596-1.795-7.906-1.08-9.406-0.834c-4.775,0.785-9.32,2.998-14.58,5.777c-4.812,2.543-10.004,5.277-16.104,7.129
			c2.67-2.598,9.65-10.299,9.65-10.299l-9.303-3.24l7.617-6.645l-11.703-6.334C171.272,203.157,174.034,203.407,176.6,203.602z
			 M163.073,178.581c-4.311,4.996-9.904,12.107-8.693,17.291c0,0,0,0.004,0.002,0.006c0.898,4.295,6.957,6.938,6.957,6.938
			l13.025,7.059l-8.453,7.377l10.143,3.197c0,0-9.299,9.533-10.365,10.488c-2.654,0.447-5.469,0.715-8.494,0.715
			c-21.52,0-51.444-12.701-58.846-12.793c-8.926-0.109-20.139,5.037-20.139,5.037l5.855-6.338c0,0-7.662,1.553-15.092,0.922
			l10.475-7.115c-9.201-0.299-17.26-3.039-21.057-5.723c0,0,16.939-1.342,39.91-1.098c9.295,0.1,25.053,1.031,25.053,1.031
			c-7.789-3.311-15.072-7.67-18.197-15.332l14.854,2.238c-6.236-3.818-15.289-13.379-16.957-20.779l16.562,5.806
			c-2.939-3.189-13.184-12.779-15.025-23.896l13.107,8.246c-3.436-3.461-12.746-21.834-11.162-27.207l12.219,8.217
			c-5.85-7.232-12.693-26.396-8.035-33.861c3.713,14.443,11.982,19.701,11.982,19.701c-5.428-7.863-17.137-35.721-5.955-47.986
			c2.938,27.781,14.746,37.162,14.746,37.162c-9.775-15.58-20.912-63.404-0.139-73.075c-4.068,30.725,5.75,47.428,5.75,47.428
			c-6.198-28.309-5.995-68.418,15.043-72.084c-10.33,30.24-2.992,53.561-2.992,53.561c-1.506-70.735,21.281-69.542,21.281-69.542
			s-3.746,20.085-3.746,55.881v103.375C166.69,170.567,166.079,174.823,163.073,178.581z"/>
		<g>
			<g>
				<g>
					<path d="M93.869,249.51c2.443,0,4.469,1.889,4.469,4.221c0,2.33-2.025,4.219-4.469,4.219c-2.441,0-4.463-1.889-4.463-4.219
						C89.406,251.399,91.428,249.51,93.869,249.51"/>
					<path d="M208.024,249.51c2.443,0,4.467,1.889,4.467,4.221s-2.023,4.219-4.467,4.219c-2.432,0-4.465-1.887-4.465-4.219
						S205.592,249.51,208.024,249.51"/>
					<path d="M55.979,275.973h-0.67c-1.166,0-3.982,0.139-6.109,0.725c-1.467,0.402-2.693,1.365-2.693,2.705
						c0,1.895,1.896,2.725,3.602,2.725c3.676,0,5.871-2.33,5.871-5.35V275.973z M63.117,271.575v15.805h-6.918v-2.658
						c-1.809,1.947-4.035,3.18-7.5,3.273c-5.453,0.16-9.746-3.164-9.746-8.135c0-7.646,8.148-9.328,16.129-9.326h0.896
						c0-2.113-0.938-4.07-5.15-4.07c-2.859,0-5.287,0.914-7.014,2.512l-4.186-4.182c2.881-2.834,6.93-4.285,11.402-4.285
						c4.428,0,6.859,0.625,9.334,2.85C62.703,265.452,63.117,269.389,63.117,271.575"/>
					<path d="M78.361,261.133v-8.275h-7.455v8.275h-5.141v6.24h5.141v11.141c0,3.73,0.633,5.945,2.119,7.432
						c1.398,1.396,3.531,2.051,6.691,2.051c2.002,0,4.021-0.398,5.59-1.072v-5.906c-0.943,0.316-2.316,0.529-4.033,0.529
						c-2.316,0-2.912-1.266-2.912-3.398v-10.775h6.945v-6.24H78.361z"/>
					<path d="M267.633,271.313c-0.33-2.857-1.9-4.955-5.629-4.879c-3.162,0.072-5.316,2.209-5.654,4.879H267.633z M275.565,274.723
						v1.98h-19.23c0.127,2.68,3.154,4.984,6.723,5.119c3.334,0.135,5.16-1.182,6.879-3.047l4.74,3.469
						c-2.879,3.641-6.439,5.754-11.484,5.754c-7.992,0-14.521-4.969-14.521-13.742c0-7.016,4.367-13.746,13.59-13.746
						C271.752,260.51,275.565,267.877,275.565,274.723"/>
					<polygon points="26.244,249.292 26.244,275.149 10.094,249.292 0,249.292 0,287.377 8.211,287.377 8.211,260.649 
						24.809,287.377 34.449,287.377 34.447,249.292 					"/>
					<polygon points="193.743,261.133 189.512,277.436 185.282,261.133 177.459,261.133 173.372,277.397 169.139,261.133 
						160.891,261.133 169.295,287.379 176.784,287.379 181.284,270.879 186.346,287.379 193.28,287.379 201.655,261.133 					"/>
					<rect x="90.102" y="261.137" width="7.543" height="26.242"/>
					<rect x="204.258" y="261.137" width="7.549" height="26.242"/>
					<path d="M156.241,262.917c-1.586-1.648-3.557-2.422-6.482-2.4c-2.885,0.02-6.225,1.422-7.809,3.473v-2.848h-7.232v26.24h7.549
						v-14.264c0-1.852,0.506-3.225,1.383-4.193c0.766-0.857,1.877-1.4,3.289-1.486c1.707-0.098,2.617,0.643,3.266,1.467
						c0.811,1.02,1.029,2.803,1.029,5.203v13.273h7.541v-16.389C158.774,267.788,158.36,265.124,156.241,262.917"/>
					<path d="M237.022,274.26c0-3.533-2.287-7.102-6.674-7.102c-4.371,0-6.656,3.568-6.656,7.102c0,3.516,2.285,7.092,6.656,7.092
						C234.737,281.352,237.022,277.776,237.022,274.26 M244.362,249.293v38.086h-7.111v-2.918c-1.66,1.914-4.379,3.537-8.148,3.537
						c-3.625,0-6.77-1.221-9.094-3.545c-2.492-2.488-3.871-6.117-3.871-10.193c0-7.971,5.342-13.75,12.719-13.748
						c3.223,0,5.898,0.99,7.953,2.93l-0.002-14.148H244.362z"/>
					<path d="M116.191,267.161c-4.379,0-6.658,3.568-6.658,7.092c0,3.525,2.279,7.092,6.658,7.092c4.367,0,6.658-3.566,6.658-7.092
						C122.85,270.729,120.559,267.161,116.191,267.161 M130.391,274.252c0,7.967-5.961,13.746-14.199,13.746
						c-8.234,0-14.199-5.779-14.199-13.746c0-7.969,5.965-13.746,14.199-13.746C124.43,260.506,130.391,266.284,130.391,274.252"/>
				</g>
				<path d="M276.303,255.26c0-2.729,2.211-4.939,4.939-4.939s4.941,2.211,4.941,4.939s-2.213,4.943-4.941,4.943
					S276.303,257.989,276.303,255.26 M275.239,255.26c0,3.311,2.693,6.006,6.004,6.006s6.004-2.695,6.004-6.006
					c0-3.307-2.693-6.006-6.004-6.006S275.239,251.952,275.239,255.26 M280.192,252.854h0.922c0.775-0.016,1.633,0.031,1.633,0.953
					s-0.857,0.971-1.633,0.971h-0.922V252.854z M278.936,258.653h1.256v-2.811h0.922l1.713,2.811h1.322l-1.791-2.908
					c0.936-0.113,1.645-0.691,1.645-1.889c0-1.324-0.773-2.066-2.42-2.066h-2.646V258.653z"/>
			</g>
		</g>
	</g>
	<path fill="#FFFFFF" d="M176.6,203.602c9.166,0.705,15.68,1.318,22.221,2.139c2.473,0.312,3.455,3.17,3.781,4.512
		c-3.131-0.777-8.084-0.984-8.084-0.984l-0.271,2.969c0,0,4.236-1.211,8.871-1.264c0,0,9.514-0.043,9.061,6.381
		c-2.596-1.795-7.906-1.08-9.406-0.834c-4.775,0.785-9.32,2.998-14.58,5.777c-4.812,2.543-10.004,5.277-16.104,7.129
		c2.67-2.598,9.65-10.299,9.65-10.299l-9.303-3.24l7.617-6.645l-11.703-6.334C171.272,203.157,174.034,203.407,176.6,203.602z
		 M163.073,178.581c-4.311,4.996-9.904,12.107-8.693,17.291c0,0,0,0.004,0.002,0.006c0.898,4.295,6.957,6.938,6.957,6.938
		l13.025,7.059l-8.453,7.377l10.143,3.197c0,0-9.299,9.533-10.365,10.488c-2.654,0.447-5.469,0.715-8.494,0.715
		c-21.52,0-51.444-12.701-58.846-12.793c-8.926-0.109-20.139,5.037-20.139,5.037l5.855-6.338c0,0-7.662,1.553-15.092,0.922
		l10.475-7.115c-9.201-0.299-17.26-3.039-21.057-5.723c0,0,16.939-1.342,39.91-1.098c9.295,0.1,25.053,1.031,25.053,1.031
		c-7.789-3.311-15.072-7.67-18.197-15.332l14.854,2.238c-6.236-3.818-15.289-13.379-16.957-20.779l16.562,5.806
		c-2.939-3.189-13.184-12.779-15.025-23.896l13.107,8.246c-3.436-3.461-12.746-21.834-11.162-27.207l12.219,8.217
		c-5.85-7.232-12.693-26.396-8.035-33.861c3.713,14.443,11.982,19.701,11.982,19.701c-5.428-7.863-17.137-35.721-5.955-47.986
		c2.938,27.781,14.746,37.162,14.746,37.162c-9.775-15.58-20.912-63.404-0.139-73.075c-4.068,30.725,5.75,47.428,5.75,47.428
		c-6.198-28.309-5.995-68.418,15.043-72.084c-10.33,30.24-2.992,53.561-2.992,53.561c-1.506-70.735,21.281-69.542,21.281-69.542
		s-3.746,20.085-3.746,55.881v103.375C166.69,170.567,166.079,174.823,163.073,178.581z"/>
</g>
</svg>
